<svg width="18" height="16" viewBox="0 0 18 16" fill="none" xmlns="http://www.w3.org/2000/svg">
<path d="M4.04884 15.7358L13.9146 15.7358C14.8887 15.7358 15.438 15.2012 15.438 14.2417L15.438 6.91746L16.5733 7.86961C16.6904 7.96483 16.8076 8.04539 16.9614 8.04539C17.2324 8.04539 17.4448 7.88426 17.4448 7.62059C17.4448 7.44481 17.3862 7.33494 17.2544 7.22508L15.438 5.69432L15.438 2.64745C15.438 2.38377 15.2622 2.21532 14.9985 2.21532L14.3101 2.21532C14.0537 2.21532 13.8706 2.38377 13.8706 2.64745L13.8706 4.37596L9.79835 0.948227C9.30763 0.530746 8.71437 0.530746 8.21632 0.948227L0.738296 7.22508C0.60646 7.33494 0.547866 7.46678 0.547866 7.60594C0.547866 7.83299 0.730972 8.04539 1.03126 8.04539C1.18507 8.04539 1.30958 7.96483 1.41945 7.86961L2.53273 6.93944L2.53273 14.2417C2.53273 15.2012 3.08205 15.7358 4.04884 15.7358ZM11.0654 9.75194C11.0654 9.44432 10.8677 9.24657 10.5601 9.24657L7.43263 9.24657C7.12501 9.24657 6.91994 9.44432 6.91994 9.75194L6.91994 14.8349L4.23927 14.8349C3.7046 14.8349 3.44093 14.5639 3.44093 14.022L3.44093 6.17772L8.71437 1.75389C8.89747 1.59276 9.09523 1.57811 9.29298 1.75389L14.5298 6.15575L14.5298 14.022C14.5298 14.5639 14.2661 14.8349 13.7241 14.8349L11.0654 14.8349L11.0654 9.75194Z" fill="#EAEAEA"/>
</svg>
