<svg width="24" height="20" viewBox="0 0 24 20" fill="none" xmlns="http://www.w3.org/2000/svg">
<path d="M12 17.0581C16.021 17.0581 19.3462 13.7329 19.3462 9.7119C19.3462 5.68358 16.021 2.36571 11.9927 2.36571C7.97169 2.36571 4.65382 5.68358 4.65382 9.7119C4.65382 13.7329 7.97902 17.0581 12 17.0581ZM11.8389 14.5312C11.8389 14.4433 11.8609 14.3701 11.9487 14.1138C12.022 13.8794 12.1318 13.5718 12.1245 13.2275C12.1099 12.7954 11.7803 12.4805 10.9014 11.8579C10.7402 11.748 10.5791 11.6308 10.418 11.5137C10.169 11.3232 10.0664 11.1548 10.0664 10.957C10.0664 10.8545 10.0884 10.7446 10.1616 10.5102C10.2349 10.2759 10.2715 10.1001 10.2715 9.98289C10.2715 9.6826 10.125 9.47752 9.76613 9.17723C9.72218 9.14061 9.68556 9.10399 9.63429 9.06737L8.46242 8.02C7.07081 6.77489 6.95363 5.92528 7.51759 4.93651C8.68947 3.83055 10.2715 3.1494 11.9927 3.1494C13.2012 3.1494 14.3438 3.48631 15.3179 4.06493C14.9297 5.00243 13.2744 5.78612 12.4248 6.23289C12.2857 6.29881 12.2271 6.4453 12.3443 6.60643C12.6592 7.03856 12.7837 7.22166 12.7837 7.40477C12.7837 7.55858 12.6665 7.67576 12.5127 7.67576C12.2417 7.67576 11.4507 6.99461 11.0552 6.99461C10.5938 6.99461 10.0664 7.48534 10.0664 7.91746C10.0664 8.54735 11.3848 9.64598 12.044 9.64598C12.4614 9.64598 13.1792 9.11864 13.4209 9.11864C13.9409 9.11864 15.3399 10.2905 15.3399 10.7226C15.3399 11.6235 12.9668 14.8901 12.293 14.8901C12.0952 14.8901 11.8389 14.707 11.8389 14.5312ZM12 16.2744C8.40382 16.2744 5.43751 13.3081 5.43751 9.7119C5.43751 8.34227 5.86232 7.06785 6.59474 6.01317C6.60939 6.75291 7.02687 7.57323 8.05958 8.48143L9.22413 9.51414C9.49513 9.75584 9.65626 9.86571 9.65626 9.99754C9.65626 10.1806 9.45119 10.5249 9.45119 10.957C9.45119 11.3598 9.64894 11.7041 10.0518 12.0044C10.9746 12.7002 11.5093 13.0151 11.5093 13.2422C11.5166 13.7036 11.2236 14.0771 11.2236 14.5605C11.2236 15.022 11.8023 15.5054 12.3076 15.5054C13.3184 15.5054 15.9551 12.0337 15.9551 10.7226C15.9551 9.94627 14.2998 8.51073 13.4209 8.51073C13.0254 8.51073 12.4321 9.03074 12.044 9.03074C11.6777 9.03074 10.6817 8.23973 10.6817 7.91746C10.6817 7.77098 10.8867 7.60985 11.0552 7.60985C11.3042 7.60985 12.022 8.291 12.4468 8.291C13.0327 8.291 13.3989 7.91014 13.3989 7.30955C13.3989 7.08983 13.311 6.88475 13.0986 6.58446C13.875 6.18895 15.3618 5.39793 15.8379 4.40916C17.4859 5.61034 18.5625 7.54393 18.5625 9.7119C18.5625 13.3081 15.5962 16.2744 12 16.2744Z" fill="#EAEAEA"/>
</svg>
